<svg xmlns="http://www.w3.org/2000/svg" xmlns:xlink="http://www.w3.org/1999/xlink" width="500" zoomAndPan="magnify" viewBox="0 0 375 374.999991" height="500" preserveAspectRatio="xMidYMid meet" version="1.0"><path fill="#00207b" d="M 200.992188 48.515625 L 221.820312 69.339844 L 237.292969 40.964844 L 223.699219 27.371094 L 200.992188 48.515625 " fill-opacity="1" fill-rule="nonzero"/><path fill="#ff5704" d="M 108.839844 319.121094 L 84.042969 358.507812 L 117.679688 327.957031 Z M 108.839844 319.121094 " fill-opacity="1" fill-rule="nonzero"/><path fill="#ff5704" d="M 289.363281 93.035156 L 223.699219 27.371094 L 146.8125 168.347656 L 183.738281 200.164062 L 136.566406 275.085938 L 155.285156 293.808594 L 264.867188 194.296875 L 226.308594 157.414062 L 289.363281 93.035156 " fill-opacity="1" fill-rule="nonzero"/><path fill="#00207b" d="M 350.070312 153.746094 L 301.058594 104.734375 L 279.363281 126.886719 L 328.144531 175.671875 C 334.722656 182.246094 334.722656 193.007812 328.144531 199.589844 L 199.589844 328.144531 C 193.007812 334.722656 182.246094 334.722656 175.667969 328.144531 L 47.113281 199.589844 C 40.535156 193.011719 40.535156 182.246094 47.113281 175.671875 L 175.667969 47.113281 C 182.246094 40.535156 193.007812 40.535156 199.589844 47.113281 L 200.992188 48.515625 L 223.695312 27.371094 L 221.511719 25.1875 C 202.828125 6.503906 172.429688 6.503906 153.746094 25.1875 L 25.1875 153.746094 C 6.503906 172.429688 6.503906 202.828125 25.1875 221.511719 L 153.746094 350.070312 C 172.429688 368.753906 202.828125 368.753906 221.511719 350.070312 L 350.070312 221.511719 C 368.753906 202.828125 368.753906 172.429688 350.070312 153.746094 " fill-opacity="1" fill-rule="nonzero"/></svg>